<svg height="512pt" viewBox="0 0 512 512" width="512pt" xmlns="http://www.w3.org/2000/svg"><path d="m256 0c-143.101562 0-256 60.398438-256 136 0 75.597656 112.898438 135 256 135s256-59.402344 256-135c0-75.601562-112.898438-136-256-136zm0 0" fill="#ff9b00"/><path d="m512 136c0 75.597656-112.898438 135-256 135v-271c143.101562 0 256 60.398438 256 136zm0 0" fill="#ff8900"/><path d="m366.359375 91.058594-35.226563 44.136718 34.832032 45.746094h.398437c42.125-1.113281 84.636719-15.4375 84.636719-44.941406s-42.511719-43.828125-84.640625-44.941406zm0 0" fill="#ae2538"/><path d="m145.640625 91.058594c-42.128906 1.113281-84.640625 15.4375-84.640625 44.941406s42.511719 43.828125 84.640625 44.941406h.394531l34.832032-44.136718zm0 0" fill="#e63950"/><path d="m391 196c0 8.398438-6.597656 15-15 15s-15-6.601562-15-15c0-16.199219-12.898438-31.800781-34.199219-43.5-20.402343 8.398438-44.402343 13.5-70.800781 13.5s-50.398438-5.101562-70.800781-13.5c-21.300781 11.699219-34.199219 27.300781-34.199219 43.5 0 8.398438-6.597656 15-15 15s-15-6.601562-15-15c0-22.800781 12.300781-43.800781 34.199219-60.300781-21.300781-15.601563-34.199219-36.300781-34.199219-59.699219 0-8.402344 6.597656-15 15-15s15 6.597656 15 15c0 32.398438 48 60 105 60s105-27.601562 105-60c0-8.402344 6.597656-15 15-15s15 6.597656 15 15c0 23.398438-12.898438 44.097656-34.199219 59.699219 21.898438 16.5 34.199219 37.5 34.199219 60.300781zm0 0" fill="#e63950"/><path d="m391 196c0 8.398438-6.597656 15-15 15s-15-6.601562-15-15c0-16.199219-12.898438-31.800781-34.199219-43.5-20.402343 8.398438-44.402343 13.5-70.800781 13.5v-30c57 0 105-27.601562 105-60 0-8.402344 6.597656-15 15-15s15 6.597656 15 15c0 23.398438-12.898438 44.097656-34.199219 59.699219 21.898438 16.5 34.199219 37.5 34.199219 60.300781zm0 0" fill="#ae2538"/><path d="m256 241c-143.101562 0-256 59.398438-256 135 0 75.597656 112.898438 136 256 136s256-60.402344 256-136c0-75.601562-112.898438-135-256-135zm0 0" fill="#ffb751"/><path d="m512 376c0 75.597656-112.898438 136-256 136v-271c143.101562 0 256 59.398438 256 135zm0 0" fill="#ff9b00"/><path d="m366.359375 331.058594-35.226563 44.136718 34.832032 45.746094h.398437c42.125-1.113281 84.636719-15.4375 84.636719-44.941406s-42.511719-43.828125-84.640625-44.941406zm0 0" fill="#e63950"/><path d="m145.640625 331.058594c-42.128906 1.113281-84.640625 15.4375-84.640625 44.941406s42.511719 43.828125 84.640625 44.941406h.394531l34.832032-44.136718zm0 0" fill="#ff637b"/><path d="m391 436c0 8.398438-6.597656 15-15 15s-15-6.601562-15-15c0-16.199219-12.898438-31.800781-34.199219-43.5-20.402343 8.398438-44.402343 13.5-70.800781 13.5s-50.398438-5.101562-70.800781-13.5c-21.300781 11.699219-34.199219 27.300781-34.199219 43.5 0 8.398438-6.597656 15-15 15s-15-6.601562-15-15c0-22.800781 12.300781-43.800781 34.199219-60.300781-21.300781-15.601563-34.199219-36.300781-34.199219-59.699219 0-8.402344 6.597656-15 15-15s15 6.597656 15 15c0 32.398438 48 60 105 60s105-27.601562 105-60c0-8.402344 6.597656-15 15-15s15 6.597656 15 15c0 23.398438-12.898438 44.097656-34.199219 59.699219 21.898438 16.5 34.199219 37.5 34.199219 60.300781zm0 0" fill="#ff637b"/><path d="m391 436c0 8.398438-6.597656 15-15 15s-15-6.601562-15-15c0-16.199219-12.898438-31.800781-34.199219-43.5-20.402343 8.398438-44.402343 13.5-70.800781 13.5v-30c57 0 105-27.601562 105-60 0-8.402344 6.597656-15 15-15s15 6.597656 15 15c0 23.398438-12.898438 44.097656-34.199219 59.699219 21.898438 16.5 34.199219 37.5 34.199219 60.300781zm0 0" fill="#e63950"/></svg>