<svg height="512pt" viewBox="0 0 512 512" width="512pt" xmlns="http://www.w3.org/2000/svg"><path d="m356.925781 375.835938c6 4.453124 11.152344 9.304687 15.636719 14.429687 30.042969-2.109375 46.808594-11.144531 48.570312-15.070313-1.769531-2.449218-18.632812-11.449218-48.902343-13.5-4.425781 5.074219-9.511719 9.789063-15.304688 14.140626zm0 0"/><path d="m90.867188 376.804688c1.761718 2.4375 18.527343 11.367187 48.566406 13.46875 4.484375-5.125 9.636718-9.984376 15.640625-14.433594-5.789063-4.351563-10.875-9.0625-15.300781-14.132813-30.269532 2.054688-47.136719 11.15625-48.90625 15.097657zm0 0"/><path d="m256 241c-142.996094 0-256 59.296875-256 135s113.003906 136 256 136 256-60.296875 256-136-113.003906-135-256-135zm132.449219 177.941406c1.535156 5.550782 2.550781 11.222656 2.550781 17.058594 0 8.289062-6.710938 15-15 15s-15-6.710938-15-15c0-16.101562-12.902344-31.882812-34.109375-43.351562-20.535156 8.339843-44.601563 13.351562-70.890625 13.351562s-50.355469-5.011719-70.890625-13.351562c-21.207031 11.46875-34.109375 27.25-34.109375 43.351562 0 8.289062-6.710938 15-15 15s-15-6.710938-15-15c0-5.835938 1.015625-11.507812 2.550781-17.058594-33.675781-4.816406-62.550781-18.660156-62.550781-42.941406 0-24.269531 28.847656-38.113281 62.503906-42.9375-1.535156-5.523438-2.503906-11.199219-2.503906-17.0625 0-8.289062 6.710938-15 15-15s15 6.710938 15 15c0 32.519531 48.089844 60 105 60s105-27.480469 105-60c0-8.289062 6.710938-15 15-15s15 6.710938 15 15c0 5.863281-.96875 11.539062-2.503906 17.0625 33.65625 4.824219 62.503906 18.667969 62.503906 42.9375 0 24.28125-28.875 38.125-62.550781 42.941406zm0 0"/><path d="m356.925781 135.835938c6 4.453124 11.152344 9.304687 15.636719 14.429687 30.042969-2.109375 46.808594-11.144531 48.570312-15.070313-1.769531-2.449218-18.632812-11.449218-48.902343-13.5-4.425781 5.074219-9.511719 9.789063-15.304688 14.140626zm0 0"/><path d="m90.867188 136.804688c1.761718 2.4375 18.527343 11.367187 48.566406 13.46875 4.484375-5.125 9.636718-9.984376 15.640625-14.433594-5.789063-4.351563-10.875-9.0625-15.300781-14.132813-30.269532 2.054688-47.136719 11.15625-48.90625 15.097657zm0 0"/><path d="m256 0c-142.996094 0-256 60.296875-256 136 0 42.152344 35.792969 79.179688 91.257812 103.753906 45.9375-18.214844 102.339844-28.753906 164.742188-28.753906s118.804688 10.539062 164.742188 28.753906c55.464843-24.574218 91.257812-61.601562 91.257812-103.753906 0-75.703125-113.003906-136-256-136zm132.449219 178.941406c1.535156 5.550782 2.550781 11.222656 2.550781 17.058594 0 8.289062-6.710938 15-15 15s-15-6.710938-15-15c0-16.101562-12.902344-31.882812-34.109375-43.351562-20.535156 8.339843-44.601563 13.351562-70.890625 13.351562s-50.355469-5.011719-70.890625-13.351562c-21.207031 11.46875-34.109375 27.25-34.109375 43.351562 0 8.289062-6.710938 15-15 15s-15-6.710938-15-15c0-5.835938 1.015625-11.507812 2.550781-17.058594-33.675781-4.816406-62.550781-18.660156-62.550781-42.941406 0-24.269531 28.847656-38.113281 62.503906-42.9375-1.535156-5.523438-2.503906-11.199219-2.503906-17.0625 0-8.289062 6.710938-15 15-15s15 6.710938 15 15c0 32.519531 48.089844 60 105 60s105-27.480469 105-60c0-8.289062 6.710938-15 15-15s15 6.710938 15 15c0 5.863281-.96875 11.539062-2.503906 17.0625 33.65625 4.824219 62.503906 18.667969 62.503906 42.9375 0 24.28125-28.875 38.125-62.550781 42.941406zm0 0"/></svg>